<svg width="24" height="24" viewBox="0 0 24 24" fill="none" xmlns="http://www.w3.org/2000/svg">
<path d="M11.7966 2.12431C14.9485 2.12431 15.3218 2.13814 16.5613 2.19343C17.7133 2.24412 18.3354 2.43766 18.7502 2.59894C19.2985 2.81091 19.6948 3.06896 20.1049 3.47908C20.5196 3.8938 20.7731 4.28549 20.9851 4.83385C21.1463 5.24857 21.3399 5.87526 21.3906 7.02267C21.4459 8.26684 21.4597 8.6401 21.4597 11.7874C21.4597 14.9393 21.4459 15.3126 21.3906 16.5521C21.3399 17.7041 21.1463 18.3262 20.9851 18.7409C20.7731 19.2893 20.515 19.6856 20.1049 20.0957C19.6902 20.5104 19.2985 20.7639 18.7502 20.9758C18.3354 21.1371 17.7087 21.3307 16.5613 21.3814C15.3172 21.4367 14.9439 21.4505 11.7966 21.4505C8.6447 21.4505 8.27145 21.4367 7.03189 21.3814C5.87987 21.3307 5.25779 21.1371 4.84306 20.9758C4.2947 20.7639 3.89841 20.5058 3.48829 20.0957C3.07357 19.681 2.82013 19.2893 2.60816 18.7409C2.44687 18.3262 2.25334 17.6995 2.20265 16.5521C2.14735 15.3079 2.13353 14.9347 2.13353 11.7874C2.13353 8.63549 2.14735 8.26223 2.20265 7.02267C2.25334 5.87066 2.44687 5.24857 2.60816 4.83385C2.82013 4.28549 3.07818 3.88919 3.48829 3.47908C3.90302 3.06435 4.2947 2.81091 4.84306 2.59894C5.25779 2.43766 5.88448 2.24412 7.03189 2.19343C8.27145 2.13814 8.6447 2.12431 11.7966 2.12431ZM11.7966 0C8.59402 0 8.19311 0.0138241 6.93512 0.0691208C5.68173 0.124417 4.82002 0.327172 4.07352 0.617479C3.29476 0.92161 2.63581 1.32251 1.98146 1.98146C1.32251 2.6358 0.92161 3.29476 0.617479 4.06891C0.327172 4.82002 0.124417 5.67712 0.0691208 6.93051C0.0138242 8.19311 0 8.59401 0 11.7966C0 14.9992 0.0138242 15.4001 0.0691208 16.6581C0.124417 17.9115 0.327172 18.7732 0.617479 19.5197C0.92161 20.2985 1.32251 20.9574 1.98146 21.6118C2.63581 22.2661 3.29476 22.6716 4.06891 22.9711C4.82002 23.2614 5.67712 23.4642 6.93051 23.5195C8.18851 23.5748 8.58941 23.5886 11.792 23.5886C14.9946 23.5886 15.3955 23.5748 16.6535 23.5195C17.9069 23.4642 18.7686 23.2614 19.5151 22.9711C20.2892 22.6716 20.9482 22.2661 21.6025 21.6118C22.2569 20.9574 22.6624 20.2985 22.9619 19.5243C23.2522 18.7732 23.455 17.9161 23.5103 16.6627C23.5656 15.4047 23.5794 15.0038 23.5794 11.8012C23.5794 8.59862 23.5656 8.19772 23.5103 6.93972C23.455 5.68633 23.2522 4.82463 22.9619 4.07812C22.6716 3.29476 22.2707 2.6358 21.6118 1.98146C20.9574 1.32712 20.2985 0.92161 19.5243 0.622087C18.7732 0.33178 17.9161 0.129025 16.6627 0.0737288C15.4001 0.0138242 14.9992 0 11.7966 0Z" fill="white"/>
<path d="M11.7966 5.73682C8.45117 5.73682 5.73703 8.45096 5.73703 11.7964C5.73703 15.1418 8.45117 17.856 11.7966 17.856C15.1421 17.856 17.8562 15.1418 17.8562 11.7964C17.8562 8.45096 15.1421 5.73682 11.7966 5.73682ZM11.7966 15.7271C9.62623 15.7271 7.86595 13.9668 7.86595 11.7964C7.86595 9.62601 9.62623 7.86574 11.7966 7.86574C13.967 7.86574 15.7273 9.62601 15.7273 11.7964C15.7273 13.9668 13.967 15.7271 11.7966 15.7271Z" fill="white"/>
<path d="M19.5105 5.49719C19.5105 6.28056 18.8746 6.91187 18.0958 6.91187C17.3125 6.91187 16.6812 6.27595 16.6812 5.49719C16.6812 4.71382 17.3171 4.08252 18.0958 4.08252C18.8746 4.08252 19.5105 4.71843 19.5105 5.49719Z" fill="white"/>
</svg>
