<svg width="24" height="24" viewBox="0 0 24 24" fill="none" xmlns="http://www.w3.org/2000/svg">
<path d="M22 19.9201V16.9201C22.0122 16.4297 21.8437 15.9519 21.5265 15.5776C21.2094 15.2033 20.7658 14.9586 20.28 14.8901C19.3199 14.7635 18.3773 14.5286 17.47 14.1901C17.1121 14.0556 16.7231 14.0264 16.3491 14.1062C15.9751 14.1859 15.6319 14.3712 15.36 14.6401L14.09 15.9101C11.5864 14.4865 9.51355 12.4136 8.08999 9.9101L9.35999 8.6401C9.62886 8.36821 9.81415 8.02494 9.8939 7.65098C9.97366 7.27701 9.94454 6.88802 9.80999 6.5301C9.47144 5.62282 9.23662 4.68016 9.10999 3.7201C9.04207 3.23954 8.80173 2.80008 8.43376 2.48363C8.06579 2.16718 7.5953 1.99532 7.10999 2.0001H4.10999C3.83233 2.00036 3.55777 2.05843 3.30379 2.17062C3.0498 2.28281 2.82196 2.44665 2.63476 2.65172C2.44756 2.85679 2.30512 3.09859 2.21649 3.36172C2.12787 3.62486 2.095 3.90356 2.11999 4.1801C2.44824 7.27109 3.49997 10.2413 5.18999 12.8501C6.72533 15.2663 8.77382 17.3148 11.19 18.8501C13.787 20.5342 16.7428 21.5857 19.82 21.9201C20.0974 21.9452 20.3769 21.912 20.6407 21.8228C20.9046 21.7336 21.1469 21.5902 21.3521 21.402C21.5573 21.2137 21.7209 20.9846 21.8325 20.7294C21.9441 20.4743 22.0011 20.1986 22 19.9201Z" stroke="#DBDFDC" stroke-width="1.5" stroke-linecap="round" stroke-linejoin="round"/>
</svg>
